<?xml version="1.0" encoding="iso-8859-1"?>
<!-- Generator: Adobe Illustrator 19.0.0, SVG Export Plug-In . SVG Version: 6.00 Build 0)  -->
<svg version="1.1" id="Layer_1" xmlns="http://www.w3.org/2000/svg" xmlns:xlink="http://www.w3.org/1999/xlink" x="0px" y="0px"
	 viewBox="0 0 460 460" style="enable-background:new 0 0 460 460;" xml:space="preserve">
<g>
	<g>
		<g>
			<path d="M55.304,404v27.654c0,15.655,12.691,28.346,28.347,28.346H376.35c15.655,0,28.346-12.691,28.346-28.346V404H55.304z"/>
			<path d="M248.175,320.716c0.003-0.003,0.007-0.007,0.01-0.01c0.003-0.003,0.006-0.006,0.008-0.008
				C248.189,320.702,248.183,320.708,248.175,320.716z"/>
			<path d="M404.695,84H55.304v290h349.391V84z M323.085,245.808c-68.325,68.324-74.488,74.486-74.901,74.899
				c-0.009,0.009-0.015,0.015-0.019,0.019c0,0,0,0,0.001-0.001c-0.001,0.001-0.001,0.001-0.002,0.002
				c-0.003,0.003-0.004,0.004-0.005,0.005c-9.807,9.763-25.607,9.674-35.317-0.036c-11.504-11.504-66.481-66.482-74.887-74.888
				c-9.848-9.848-9.668-25.687,0-35.355c9.763-9.763,25.592-9.762,35.355,0c20.349,20.349,10.193,10.193,32.21,32.21v-84.515
				c0-13.807,11.193-25,25-25s24.999,11.193,24.999,25v84.516c15.384-15.383,16.828-16.827,32.211-32.211
				c9.764-9.762,25.594-9.763,35.355,0C332.794,220.165,332.889,236.004,323.085,245.808z"/>
			<path d="M404.695,28.346C404.694,12.691,392.004,0,376.348,0H83.65C67.996,0,55.304,12.691,55.304,28.346V54h349.391V28.346z"/>
		</g>
	</g>
</g>
<g>
</g>
<g>
</g>
<g>
</g>
<g>
</g>
<g>
</g>
<g>
</g>
<g>
</g>
<g>
</g>
<g>
</g>
<g>
</g>
<g>
</g>
<g>
</g>
<g>
</g>
<g>
</g>
<g>
</g>
</svg>
