<?xml version="1.0" standalone="no"?>
<!DOCTYPE svg PUBLIC "-//W3C//DTD SVG 20010904//EN"
 "http://www.w3.org/TR/2001/REC-SVG-20010904/DTD/svg10.dtd">
<svg version="1.0" xmlns="http://www.w3.org/2000/svg"
 width="225.000000pt" height="225.000000pt" viewBox="0 0 225.000000 225.000000"
 preserveAspectRatio="xMidYMid meet">

<g transform="translate(0.000000,225.000000) scale(0.100000,-0.100000)"
fill="#000000" stroke="none">
<path d="M1095 1957 c-28 -13 -177 -92 -331 -175 -155 -84 -287 -152 -294
-152 -7 0 -47 20 -89 44 -192 113 -301 130 -301 48 0 -56 55 -110 218 -215
l72 -47 -5 -67 c-11 -144 -25 -467 -25 -581 0 -135 8 -152 73 -152 50 0 70 30
96 142 88 386 117 498 126 498 6 0 89 -42 185 -93 l175 -93 21 -103 c19 -96
31 -120 60 -121 6 0 21 45 34 100 l22 101 79 60 c80 63 90 77 65 98 -11 10
-36 7 -115 -14 -55 -15 -106 -23 -113 -19 -25 15 -318 236 -318 240 0 2 110
92 244 198 134 107 246 202 250 211 12 33 6 66 -19 90 -30 31 -47 31 -110 2z"/>
<path d="M1272 1840 c-8 -16 -58 -65 -114 -109 l-100 -81 343 -2 344 -3 3
-382 2 -383 50 -25 c27 -14 52 -25 55 -25 3 0 5 182 5 405 0 440 -1 451 -55
493 -24 19 -40 22 -126 22 l-99 0 0 60 0 60 -148 0 -147 0 -13 -30z"/>
<path d="M896 1521 c-12 -14 -16 -32 -14 -67 l3 -49 93 -3 92 -3 0 71 0 70
-78 0 c-65 0 -82 -3 -96 -19z"/>
<path d="M1170 1465 l0 -65 100 0 100 0 0 65 0 65 -100 0 -100 0 0 -65z"/>
<path d="M1460 1465 l0 -65 100 0 100 0 0 65 0 65 -100 0 -100 0 0 -65z"/>
<path d="M1460 1155 l0 -65 100 0 100 0 0 65 0 65 -100 0 -100 0 0 -65z"/>
<path d="M680 795 l0 -415 -55 0 -55 0 0 -55 0 -55 700 0 700 0 0 55 0 55 -61
0 -60 0 3 84 3 84 -39 12 c-21 6 -44 14 -52 17 -11 4 -14 -14 -14 -96 l0 -101
-190 0 -190 0 0 190 0 190 -100 0 -100 0 0 -190 0 -190 -195 0 -195 0 0 390 0
390 -50 25 -50 25 0 -415z"/>
<path d="M1278 1040 c-24 -15 -41 -72 -29 -102 7 -18 56 -51 178 -120 321
-183 406 -217 553 -225 111 -6 142 3 170 49 28 46 25 102 -9 174 -27 57 -105
153 -116 142 -3 -2 3 -41 12 -86 13 -63 14 -86 5 -106 -37 -81 -224 -13 -598
221 -99 62 -132 72 -166 53z"/>
<path d="M880 951 l0 -71 50 0 c28 0 50 3 50 8 -1 4 -6 34 -13 67 -13 59 -13
60 -50 63 l-37 3 0 -70z"/>
<path d="M880 695 l0 -65 95 0 95 0 0 65 0 65 -95 0 -95 0 0 -65z"/>
<path d="M1460 680 l0 -50 93 0 92 0 -45 26 c-25 14 -66 37 -92 50 l-48 24 0
-50z"/>
</g>
</svg>
