<?xml version="1.0" standalone="no"?>
<!DOCTYPE svg PUBLIC "-//W3C//DTD SVG 20010904//EN"
 "http://www.w3.org/TR/2001/REC-SVG-20010904/DTD/svg10.dtd">
<svg version="1.0" xmlns="http://www.w3.org/2000/svg"
 width="132.000000pt" height="132.000000pt" viewBox="0 0 132.000000 132.000000"
 preserveAspectRatio="xMidYMid meet">
<metadata>
Created by potrace 1.16, written by Peter Selinger 2001-2019
</metadata>
<g transform="translate(0.000000,132.000000) scale(0.100000,-0.100000)"
fill="#000000" stroke="none">
<path d="M525 1304 c-116 -23 -227 -84 -320 -178 -86 -87 -128 -155 -166 -271
-34 -101 -34 -289 0 -390 38 -116 80 -184 166 -271 63 -63 98 -90 165 -123
137 -67 271 -85 412 -56 234 50 415 216 495 455 26 78 26 302 0 380 -80 239
-261 405 -495 455 -88 18 -163 18 -257 -1z m463 -255 c4 -43 -23 -107 -81
-198 l-44 -67 59 -239 59 -240 -22 -48 c-13 -26 -26 -44 -30 -40 -4 5 -44 96
-89 203 -46 107 -86 199 -90 203 -4 4 -55 -49 -114 -118 l-108 -126 7 -78 c7
-78 2 -121 -15 -121 -4 0 -30 26 -56 59 -41 51 -58 63 -126 91 -75 31 -78 34
-62 51 10 11 43 22 90 30 41 6 80 17 88 23 16 11 170 286 164 291 -4 3 -313
46 -385 53 -29 2 -53 8 -53 13 0 4 15 19 33 32 30 22 49 25 272 41 272 20 228
3 337 130 59 68 103 98 138 94 21 -3 26 -9 28 -39z"/>
</g>
</svg>
