<?xml version="1.0" standalone="no"?>
<!DOCTYPE svg PUBLIC "-//W3C//DTD SVG 20010904//EN"
 "http://www.w3.org/TR/2001/REC-SVG-20010904/DTD/svg10.dtd">
<svg version="1.0" xmlns="http://www.w3.org/2000/svg"
 width="129.000000pt" height="129.000000pt" viewBox="0 0 129.000000 129.000000"
 preserveAspectRatio="xMidYMid meet">
<metadata>
Created by potrace 1.16, written by Peter Selinger 2001-2019
</metadata>
<g transform="translate(0.000000,129.000000) scale(0.100000,-0.100000)"
fill="#000000" stroke="none">
<path d="M1000 1093 c-8 -3 -62 -52 -120 -109 l-106 -105 -219 51 c-120 27
-226 50 -234 50 -15 0 -71 -48 -71 -61 0 -4 80 -49 177 -99 98 -51 180 -94
182 -97 6 -4 -180 -193 -190 -193 -4 0 -40 18 -79 41 l-73 41 -35 -36 c-20
-19 -34 -37 -32 -39 3 -3 50 -34 105 -70 95 -63 103 -71 165 -166 36 -56 67
-101 71 -101 3 0 20 15 38 34 l33 34 -41 72 c-23 39 -41 75 -41 79 0 10 189
196 193 190 3 -2 46 -84 97 -181 50 -98 95 -178 99 -178 13 0 61 56 61 71 0 8
-23 114 -50 234 l-51 219 107 107 c91 91 107 113 107 139 0 47 -52 87 -93 73z"/>
</g>
</svg>
