<?xml version="1.0" encoding="iso-8859-1"?>
<!-- Generator: Adobe Illustrator 19.0.0, SVG Export Plug-In . SVG Version: 6.00 Build 0)  -->
<svg version="1.1" id="Capa_1" xmlns="http://www.w3.org/2000/svg" xmlns:xlink="http://www.w3.org/1999/xlink" x="0px" y="0px"
	 viewBox="0 0 453.6 453.6" style="enable-background:new 0 0 453.6 453.6;" xml:space="preserve">
<g>
	<g>
		<path d="M226.72,0H55.76c-4.418,0-8,3.582-8,8v370.4c2.656-0.305,5.327-0.452,8-0.44h178.96V8C234.72,3.582,231.138,0,226.72,0z
			 M126.44,299.2H87.6v-38.84h38.84V299.2z M126.44,229.44H87.6V190.6h38.84V229.44z M126.44,159.68H87.6v-38.84h38.84V159.68z
			 M126.44,89.92H87.6V51.08h38.84V89.92z M194.72,299.2h-38.68v-38.84h38.68V299.2z M194.72,229.44h-38.68V190.6h38.68V229.44z
			 M194.72,159.68h-38.68v-38.84h38.68V159.68z M194.72,89.92h-38.68V51.08h38.68V89.92z"/>
	</g>
</g>
<g>
	<g>
		<path d="M397.68,110.4H246.72v267.2h27.32V255.52h102.72v122.44l20.92,0c2.673-0.012,5.344,0.135,8,0.44v-260
			C405.68,113.982,402.098,110.4,397.68,110.4z M310.4,202.28h-38.8v-38.84h38.84L310.4,202.28z M378.72,202.28H340v-38.84h38.72
			V202.28z"/>
	</g>
</g>
<g>
	<g>
		<path d="M397.84,389.92h-0.16H55.76c-30.679,0.175-55.505,25.001-55.68,55.68c0,4.418,3.582,8,8,8h437.44c4.418,0,8-3.582,8-8
			C453.345,414.921,428.519,390.095,397.84,389.92z"/>
	</g>
</g>
<g>
</g>
<g>
</g>
<g>
</g>
<g>
</g>
<g>
</g>
<g>
</g>
<g>
</g>
<g>
</g>
<g>
</g>
<g>
</g>
<g>
</g>
<g>
</g>
<g>
</g>
<g>
</g>
<g>
</g>
</svg>
