<?xml version="1.0" encoding="iso-8859-1"?>
<!-- Generator: Adobe Illustrator 19.0.0, SVG Export Plug-In . SVG Version: 6.00 Build 0)  -->
<svg version="1.1" id="Layer_1" xmlns="http://www.w3.org/2000/svg" xmlns:xlink="http://www.w3.org/1999/xlink" x="0px" y="0px"
	 viewBox="0 0 512.021 512.021" style="enable-background:new 0 0 512.021 512.021;" xml:space="preserve">
<g>
	<g>
		<path d="M439.093,265.835l-68.587-77.141c-16.469-18.539-38.293-31.168-62.101-36.501c19.925-15.637,32.96-39.637,32.96-66.859
			C341.365,38.272,303.093,0,256.032,0s-85.333,38.272-85.333,85.333c0,27.221,13.056,51.243,32.96,66.88
			c-23.808,5.312-45.632,17.963-62.101,36.48l-68.16,76.672c-6.059,6.037-9.387,14.08-9.387,22.635c0,17.643,14.357,32,32,32
			c8.555,0,16.597-3.328,22.976-9.728l51.691-56.661v72.512l-51.499,49.067c-8.064,8.043-12.501,18.752-12.501,30.144
			c0,11.392,4.437,22.101,12.736,30.4l71.296,66.88c6.037,6.059,14.08,9.387,22.635,9.387c17.643,0,32-14.357,32-32
			c0-8.555-3.328-16.597-9.365-22.635l-39.573-39.573L228.576,384h54.869l32.171,33.792l-39.552,39.595
			c-6.059,6.037-9.387,14.08-9.387,22.635c0,17.643,14.357,32,32,32c8.533,0,16.576-3.328,22.379-9.131l71.787-67.371
			c8.064-8.085,12.501-18.795,12.501-30.187c0-11.392-4.437-22.101-12.693-30.336l-51.307-48.896v-72.512l52.032,57.024
			c6.037,6.059,14.08,9.387,22.635,9.387c17.643,0,32-14.357,32-32C448.032,279.445,444.704,271.403,439.093,265.835z
			 M278.432,362.667h-44.821c-4.245-20.864-20.715-37.333-41.579-41.6v-22.4h128v22.4h0
			C299.168,325.312,282.699,341.803,278.432,362.667z"/>
	</g>
</g>
<g>
</g>
<g>
</g>
<g>
</g>
<g>
</g>
<g>
</g>
<g>
</g>
<g>
</g>
<g>
</g>
<g>
</g>
<g>
</g>
<g>
</g>
<g>
</g>
<g>
</g>
<g>
</g>
<g>
</g>
</svg>
