<?xml version="1.0" encoding="iso-8859-1"?>
<!-- Generator: Adobe Illustrator 19.0.0, SVG Export Plug-In . SVG Version: 6.00 Build 0)  -->
<svg version="1.1" id="Capa_1" xmlns="http://www.w3.org/2000/svg" xmlns:xlink="http://www.w3.org/1999/xlink" x="0px" y="0px"
	 viewBox="0 0 512 512" style="enable-background:new 0 0 512 512;" xml:space="preserve">
<g>
	<g>
		<path d="M226,121c-24.814,0-45,20.186-45,45v120c0,24.814,20.186,45,45,45h15V121H226z"/>
	</g>
</g>
<g>
	<g>
		<path d="M436,121h-15v210h15c24.814,0,45-20.186,45-45V166C481,141.186,460.814,121,436,121z"/>
	</g>
</g>
<g>
	<g>
		<rect x="271" y="121" width="120" height="210"/>
	</g>
</g>
<g>
	<g>
		<polygon points="271,31 271,91 301,91 301,61 361,61 361,91 391,91 391,31 		"/>
	</g>
</g>
<g>
	<g>
		<circle cx="211" cy="451" r="30"/>
	</g>
</g>
<g>
	<g>
		<circle cx="421" cy="451" r="30"/>
	</g>
</g>
<g>
	<g>
		<path d="M151,361V61H0v30h121v330h38.344c10.406-17.847,29.542-30,51.656-30s41.25,12.153,51.656,30h106.688
			c10.406-17.847,29.542-30,51.656-30s41.25,12.153,51.656,30H512v-60H151z"/>
	</g>
</g>
<g>
</g>
<g>
</g>
<g>
</g>
<g>
</g>
<g>
</g>
<g>
</g>
<g>
</g>
<g>
</g>
<g>
</g>
<g>
</g>
<g>
</g>
<g>
</g>
<g>
</g>
<g>
</g>
<g>
</g>
</svg>
