<?xml version="1.0" standalone="no"?>
<!DOCTYPE svg PUBLIC "-//W3C//DTD SVG 20010904//EN"
 "http://www.w3.org/TR/2001/REC-SVG-20010904/DTD/svg10.dtd">
<svg version="1.0" xmlns="http://www.w3.org/2000/svg"
 width="203.000000pt" height="249.000000pt" viewBox="0 0 203.000000 249.000000"
 preserveAspectRatio="xMidYMid meet">
<metadata>
Created by potrace 1.16, written by Peter Selinger 2001-2019
</metadata>
<g transform="translate(0.000000,249.000000) scale(0.100000,-0.100000)"
fill="#000000" stroke="none">
<path d="M1070 2446 c0 -25 -4 -48 -10 -51 -5 -3 -10 -11 -10 -16 0 -6 5 -7
10 -4 13 8 13 -51 0 -76 -7 -13 -7 -19 0 -19 5 0 10 -14 10 -31 0 -17 -5 -39
-10 -50 -7 -12 -7 -19 -1 -19 5 0 9 -13 9 -30 -1 -28 -4 -30 -37 -30 -27 0
-32 3 -21 10 13 8 13 10 -2 10 -9 0 -18 -4 -20 -9 -3 -9 -144 -34 -200 -35
-16 -1 -28 -4 -28 -7 0 -4 -28 -14 -62 -24 -35 -9 -105 -37 -155 -60 -51 -24
-93 -42 -93 -39 0 2 -8 -3 -17 -11 -10 -9 -53 -42 -95 -75 -42 -32 -100 -87
-128 -122 -28 -35 -66 -80 -83 -102 -18 -21 -32 -44 -32 -50 -1 -20 -47 -136
-55 -136 -4 0 -11 -7 -14 -16 -3 -8 -2 -12 4 -9 12 8 13 11 -5 -55 -9 -30 -18
-104 -21 -165 l-5 -110 30 73 c32 80 57 123 78 135 7 5 10 14 7 20 -4 7 -4 9
1 5 9 -9 35 9 35 24 0 5 -6 6 -13 2 -6 -4 -3 2 7 14 23 26 34 30 15 5 -8 -10
19 11 58 46 40 35 70 68 66 74 -3 5 -2 7 4 4 5 -3 17 3 27 14 10 12 46 34 81
50 72 32 89 36 59 14 -10 -8 -14 -15 -7 -15 6 0 24 11 40 23 15 13 42 27 58
31 17 4 39 9 50 13 l20 5 -20 -16 -20 -16 20 7 c11 4 26 13 33 20 7 7 23 13
35 13 12 0 33 3 47 6 25 6 25 6 5 -11 -19 -16 -19 -16 7 -1 15 8 46 19 70 22
l43 7 -25 -21 c-24 -20 -24 -21 -3 -15 12 3 28 11 34 19 6 8 28 14 48 14 27 0
32 -3 21 -10 -12 -8 -11 -10 6 -10 12 0 27 7 34 15 7 8 28 15 49 15 34 -1 35
-2 17 -15 -11 -8 -16 -18 -13 -22 4 -3 17 3 30 15 13 12 26 22 30 22 12 0 -1
-71 -17 -89 -9 -10 -16 -22 -16 -27 0 -5 4 -3 9 5 5 7 13 11 19 7 15 -9 8 -52
-11 -74 -22 -24 -24 -50 -3 -33 11 10 16 8 21 -8 7 -22 -5 -50 -29 -71 -9 -7
-16 -19 -16 -28 0 -13 3 -12 20 3 18 17 20 17 26 1 4 -10 1 -29 -5 -43 -6 -14
-10 -28 -7 -30 2 -2 73 55 157 128 397 342 382 329 297 247 -43 -41 -78 -78
-78 -82 0 -5 35 23 78 62 88 80 110 103 111 117 1 6 5 10 9 10 11 0 132 119
132 129 0 4 -4 5 -9 2 -11 -7 -53 39 -44 49 5 4 2 5 -5 1 -16 -10 -54 22 -45
37 3 5 2 7 -4 4 -6 -4 -33 15 -62 42 -28 26 -51 45 -51 43 0 -3 -9 3 -20 13
-11 10 -20 24 -20 32 0 8 -4 12 -8 9 -12 -7 -53 24 -46 35 3 5 2 8 -3 7 -11
-4 -105 73 -99 80 3 3 -9 12 -27 21 -17 9 -31 22 -30 29 2 7 0 11 -5 10 -11
-4 -53 28 -47 35 3 4 2 5 -2 2 -9 -7 -43 26 -43 42 0 8 -5 11 -11 8 -12 -8
-51 24 -43 36 3 5 -1 9 -9 9 -8 0 -20 7 -27 15 -21 25 -30 17 -30 -29z"/>
<path d="M2002 1323 c-13 -35 -27 -63 -32 -63 -5 0 -19 -15 -31 -32 l-23 -33
23 20 24 20 -22 -42 c-46 -92 -169 -211 -271 -263 l-25 -13 20 23 20 23 -22
-12 c-12 -6 -28 -20 -36 -31 -8 -11 -40 -29 -72 -40 -70 -24 -75 -24 -49 -5
19 15 19 15 -1 9 -11 -4 -26 -14 -32 -22 -8 -10 -30 -16 -62 -16 -27 -1 -45
-4 -39 -7 5 -3 -12 -9 -38 -13 -64 -8 -76 -8 -69 4 10 16 -11 12 -25 -5 -7 -9
-29 -15 -54 -15 -30 0 -37 3 -26 10 13 9 13 10 0 10 -9 0 -21 -5 -28 -12 -15
-15 -172 -24 -172 -10 0 6 4 14 10 17 6 3 10 11 10 16 0 6 -4 7 -10 4 -6 -4
-10 10 -10 34 0 22 5 43 10 46 6 3 10 11 10 16 0 6 -4 7 -10 4 -6 -4 -10 8
-10 29 0 19 5 38 10 41 6 3 10 13 10 21 0 8 -4 12 -10 9 -20 -12 -10 61 10 83
16 17 17 22 6 22 -8 0 -17 -6 -19 -12 -3 -7 -6 -1 -6 13 -2 60 -30 45 -170
-95 -112 -110 -322 -299 -489 -438 -29 -24 -31 -29 -19 -50 7 -14 17 -23 23
-21 6 2 19 -6 29 -17 10 -11 14 -20 9 -20 -5 -1 6 -7 24 -15 18 -8 31 -19 27
-25 -3 -5 0 -10 8 -10 16 0 55 -39 41 -41 -5 -1 2 -4 16 -8 14 -4 30 -17 36
-29 6 -12 14 -19 17 -15 10 10 47 -28 40 -41 -3 -6 -2 -8 2 -3 11 9 45 -22 45
-41 0 -8 6 -12 14 -9 16 6 50 -26 39 -36 -3 -4 3 -7 14 -7 23 0 57 -33 46 -44
-5 -4 -3 -6 2 -5 18 6 56 -21 49 -34 -4 -7 -3 -9 1 -4 11 9 45 -21 45 -40 0
-8 5 -11 11 -8 12 8 51 -24 43 -36 -3 -5 0 -9 7 -9 7 0 27 -12 46 -26 19 -14
37 -24 39 -21 3 3 5 78 5 167 -2 156 -1 162 21 180 14 12 39 19 63 20 41 0
170 22 240 41 22 6 45 12 50 14 12 2 34 11 103 41 28 13 52 21 52 19 0 -3 15
6 34 18 19 12 60 38 93 57 81 49 230 201 273 279 19 35 43 72 53 83 10 10 15
24 11 30 -4 6 -3 8 3 5 5 -3 10 6 10 21 0 15 8 45 18 67 10 22 19 51 20 65 1
14 7 64 14 111 7 47 11 103 9 125 l-3 39 -23 -62z"/>
</g>
</svg>
