<svg height="502pt" viewBox="-3 0 502 502.57371" width="502pt" xmlns="http://www.w3.org/2000/svg"><path d="m474.023438 393.910156 15.898437-31.46875-26.019531-23.84375c-3.015625-2.769531-3.824219-7.207031-1.972656-10.863281l15.898437-31.46875-25.984375-23.835937c-3.019531-2.765626-3.832031-7.207032-1.984375-10.863282l15.910156-31.46875-25.984375-23.835937c-3.019531-2.765625-3.832031-7.203125-1.984375-10.859375l10.769531-21.195313-31.386718 5.714844c.90625 4.953125-2.363282 9.707031-7.316406 10.632813-.542969.097656-1.097657.148437-1.652344.148437-4.414063-.003906-8.195313-3.160156-8.988282-7.5l-90.515624 16.457031h-.0625l-259 47.222656c.78125 4.910157-2.5 9.542969-7.386719 10.433594-4.886719.894532-9.59375-2.28125-10.597657-7.148437l-31.378906 5.722656 17.539063 16.074219c3.015625 2.769531 3.820312 7.207031 1.972656 10.859375l-15.90625 31.480469 25.992187 23.824218c3.023438 2.769532 3.835938 7.214844 1.984376 10.871094l-15.917969 31.472656 25.984375 23.832032c3.019531 2.769531 3.828125 7.207031 1.984375 10.863281l-15.902344 31.496093 25.984375 23.84375c3.019531 2.773438 3.824219 7.210938 1.976562 10.863282l-10.726562 21.203125 31.378906-5.722657c-.902344-4.972656 2.394532-9.734374 7.367188-10.640624 4.96875-.902344 9.730468 2.394531 10.636718 7.367187l349.539063-63.71875c-.914063-4.96875 2.375-9.734375 7.34375-10.648437 4.96875-.914063 9.734375 2.371093 10.648437 7.339843l31.378907-5.722656-17.535157-16.082031c-3.007812-2.765625-3.816406-7.1875-1.984374-10.835938zm-432.722657-90.878906-3.21875-17.628906c-.589843-3.210938.578125-6.496094 3.0625-8.613282 2.488281-2.117187 5.914063-2.75 8.992188-1.65625s5.339843 3.75 5.929687 6.960938l3.21875 17.617188c.914063 4.957031-2.359375 9.71875-7.3125 10.644531-.546875.097656-1.101562.144531-1.65625.144531-4.414062.011719-8.207031-3.128906-9.015625-7.46875zm9.636719 52.855469-3.21875-17.621094c-.667969-3.246094.472656-6.601563 2.984375-8.765625s6-2.800781 9.113281-1.664062c3.113282 1.140624 5.367188 3.875 5.886719 7.148437l3.210937 17.617187c.910157 4.960938-2.359374 9.71875-7.316406 10.644532-.546875.09375-1.097656.140625-1.652344.144531-4.421874.007813-8.214843-3.152344-9.007812-7.503906zm9.636719 52.863281-3.207031-17.617188c-.671876-3.25.472656-6.605468 2.984374-8.769531 2.507813-2.164062 5.996094-2.800781 9.109376-1.664062 3.113281 1.140625 5.367187 3.875 5.890624 7.148437l3.207032 17.621094c.667968 3.246094-.472656 6.601562-2.984375 8.765625s-5.996094 2.800781-9.109375 1.664063c-3.113282-1.140626-5.367188-3.875-5.890625-7.148438zm20.242187 60.214844c-4.953125.90625-9.707031-2.363282-10.632812-7.316406l-3.21875-17.617188c-.652344-3.238281.492187-6.582031 3-8.738281 2.503906-2.15625 5.980468-2.792969 9.085937-1.664063 3.105469 1.132813 5.363281 3.847656 5.898438 7.113282l3.21875 17.625c.882812 4.953124-2.402344 9.6875-7.351563 10.597656zm259.183594-150.730469-28.34375 37.945313 16.457031 42.886718c2.34375 6.214844.953125 13.222656-3.59375 18.066406-4.554687 4.914063-11.5 6.824219-17.929687 4.929688l-47.210938-13.796875-38.765625 29.476563c-5.339843 4.058593-12.523437 4.726562-18.515625 1.71875-5.960937-2.9375-9.738281-9.007813-9.738281-15.652344l-.109375-46.628906-39.550781-24.851563c-5.6875-3.652344-8.769531-10.253906-7.914063-16.960937.855469-6.707032 5.496094-12.324219 11.917969-14.433594l46.480469-15.304688 13.542968-45.183594c1.945313-6.300781 7.238282-10.992187 13.722657-12.171874 6.484375-1.183594 13.089843 1.339843 17.132812 6.546874l29.167969 37.769532 48.347656-2.351563c6.773438-.316406 13.121094 3.300781 16.300782 9.289063 3.179687 5.988281 2.621093 13.273437-1.4375 18.707031zm68.835938-82.203125-3.210938-17.625c-.726562-3.273438.390625-6.679688 2.917969-8.882812 2.523437-2.199219 6.050781-2.84375 9.191406-1.675782 3.140625 1.164063 5.394531 3.957032 5.867187 7.273438l3.21875 17.621094c.652344 3.238281-.492187 6.582031-3 8.738281-2.503906 2.15625-5.980468 2.789062-9.085937 1.660156s-5.363281-3.847656-5.898437-7.109375zm9.636718 52.855469-3.21875-17.617188c-.667968-3.25.472656-6.601562 2.984375-8.769531 2.511719-2.164062 5.996094-2.800781 9.109375-1.660156 3.113282 1.136718 5.367188 3.871094 5.890625 7.144531l3.21875 17.621094c.910157 4.957031-2.359375 9.714843-7.316406 10.640625-.546875.09375-1.097656.144531-1.652344.148437-4.425781.007813-8.222656-3.152343-9.015625-7.507812zm9.644532 52.863281-3.21875-17.597656c-.652344-3.242188.492187-6.582032 3-8.738282 2.503906-2.15625 5.980468-2.792968 9.085937-1.664062 3.109375 1.128906 5.363281 3.847656 5.898437 7.109375l3.210938 17.628906c.90625 4.953125-2.363281 9.707031-7.316406 10.632813-.546875.097656-1.097656.144531-1.652344.144531-4.425781.003906-8.21875-3.160156-9.007812-7.515625zm20.242187 60.214844c-4.953125.90625-9.707031-2.363282-10.632813-7.3125l-3.207031-17.621094c-.722656-3.265625.398438-6.664062 2.917969-8.863281 2.523438-2.195313 6.042969-2.839844 9.183594-1.679688 3.136718 1.160157 5.386718 3.941407 5.871094 7.253907l3.21875 17.617187c.886718 4.957031-2.398438 9.699219-7.351563 10.605469zm0 0"/><path d="m455.59375 83.457031c-.554688-.003906-1.105469-.054687-1.648438-.148437-4.941406-.925782-8.207031-5.667969-7.3125-10.613282l-349.597656-63.707031c-.789062 4.34375-4.570312 7.5-8.984375 7.503907-.554687-.003907-1.105469-.050782-1.648437-.144532-4.953125-.925781-8.226563-5.683594-7.3125-10.640625l-31.371094-5.707031 10.726562 21.238281c1.84375 3.65625 1.035157 8.09375-1.984374 10.863281l-25.992188 23.84375 15.90625 31.488282c1.859375 3.664062 1.042969 8.121094-1.992188 10.890625l-25.976562 23.769531 15.890625 31.480469c1.839844 3.636719 1.050781 8.050781-1.9375 10.824219l-26.019531 23.84375 15.898437 31.488281c1.847657 3.65625 1.035157 8.09375-1.984375 10.863281l-4.148437 3.8125 22.015625-4.015625.511718-2.824219c.8125-4.203125 4.433594-7.277344 8.714844-7.402344 4.277344-.121093 8.070313 2.742188 9.121094 6.890626l119.003906-21.695313 9.0625-24.128906-28.296875-37.195313c-4.046875-5.386718-4.609375-12.628906-1.445312-18.578125 3.050781-6.144531 9.5-9.847656 16.347656-9.378906l48.859375 2.101563 28.671875-37.484376c4.023437-5.195312 10.601563-7.71875 17.066406-6.554687 6.464844 1.164063 11.746094 5.824219 13.707031 12.09375l14 45.652344 46.058594 14.894531c6.496094 2.0625 11.183594 7.738281 11.988282 14.507812.546874 4.496094-.699219 9.023438-3.464844 12.609376l56.867187-10.371094 25.976563-4.726563.511718-2.816406c.757813-4.261719 4.402344-7.40625 8.730469-7.535156 4.328125-.128907 8.152344 2.796875 9.160157 7.007812l14.136718-2.578125c3.410156-.621094 6.882813.742188 8.960938 3.519532.308594.449218.570312.929687.785156 1.433593l19.273438-17.679687-15.929688-31.5c-1.84375-3.652344-1.035156-8.082032 1.976562-10.851563l17.535157-16.101562-31.441407-5.730469c-.796874 4.332031-4.570312 7.480469-8.976562 7.488281zm-391.636719 107.0625c-.472656 3.316407-2.722656 6.109375-5.863281 7.277344-3.140625 1.164063-6.671875.519531-9.195312-1.679687-2.527344-2.203126-3.644532-5.609376-2.914063-8.878907l3.65625-20.117187c.507813-3.28125 2.761719-6.03125 5.878906-7.179688 3.121094-1.144531 6.617188-.511718 9.132813 1.664063 2.515625 2.171875 3.652344 5.535156 2.972656 8.789062zm11.027344-60.5c-.789063 4.339844-4.566406 7.5-8.980469 7.507813-.550781-.003906-1.101562-.054688-1.644531-.148438-4.953125-.921875-8.226563-5.683594-7.3125-10.640625l3.65625-20.1875c.507813-3.285156 2.761719-6.035156 5.878906-7.179687 3.121094-1.148438 6.617188-.511719 9.132813 1.660156s3.652344 5.539062 2.972656 8.792969zm11.027344-60.496093c-.792969 4.34375-4.574219 7.5-8.988281 7.503906-.554688 0-1.109376-.054688-1.65625-.152344-4.949219-.925781-8.21875-5.679688-7.3125-10.636719l3.65625-20.167969c.535156-3.261718 2.792968-5.980468 5.898437-7.109374 3.105469-1.128907 6.582031-.492188 9.085937 1.664062 2.507813 2.15625 3.652344 5.496094 3 8.738281zm369.460937 56.410156c-.789062 4.34375-4.570312 7.503906-8.988281 7.507812-.550781 0-1.101563-.050781-1.644531-.148437-4.949219-.925781-8.222656-5.679688-7.3125-10.632813l3.035156-16.667968c.519531-3.273438 2.773438-6.007813 5.886719-7.148438 3.113281-1.136719 6.601562-.5 9.113281 1.664062 2.507812 2.164063 3.652344 5.519532 2.984375 8.769532zm0 0"/><path d="m262.3125 303.769531-28.664062-37.117187-13.355469 44.800781c-1.683594 5.472656-5.921875 9.789063-11.367188 11.574219l-45.035156 14.835937 38.527344 24.625c5.03125 3.191407 8.082031 8.730469 8.089843 14.691407l.109376 45.175781 38.253906-28.808594c4.472656-3.355469 10.261718-4.410156 15.625-2.84375l45.953125 13.449219-15.828125-42.304688c-2.109375-5.582031-1.207032-11.851562 2.386718-16.613281l27.355469-36.664063-47.378906 2.011719c-5.699219.207031-11.152344-2.324219-14.671875-6.8125zm0 0"/><path d="m480.324219 206.261719-13.761719-27.171875-9.277344 18.378906 16.316406 14.964844zm0 0"/><path d="m196.4375 201.535156 107.273438-19.554687 29.027343-18.597657-45.429687-14.628906c-5.445313-1.753906-9.683594-6.070312-11.335938-11.546875l-13.613281-44.371093-28.390625 36.753906c-3.480469 4.519531-8.929688 7.070312-14.628906 6.847656l-47.449219-2.046875 27.34375 36.570313c3.53125 4.703124 4.476563 10.859374 2.523437 16.402343zm0 0"/></svg>